<?xml version="1.0" standalone="no"?><!DOCTYPE svg PUBLIC "-//W3C//DTD SVG 1.1//EN" "http://www.w3.org/Graphics/SVG/1.1/DTD/svg11.dtd"><svg class="icon" width="1024px" height="1024.00px" viewBox="0 0 1024 1024" version="1.1" xmlns="http://www.w3.org/2000/svg"><path fill="#2196f3" d="M878.656573 1021.780174h-25.489008c-43.331315 0-81.564828-28.03791-96.858234-68.820324l-33.135711-96.858233c-12.744504-40.782414-53.526918-68.820323-96.858233-68.820323h-234.49888c-43.331315 0-84.113729 28.03791-96.858233 68.820323l-33.135711 96.858233c-10.195603 40.782414-50.978017 68.820323-94.309332 68.820324H144.573123C73.203898 1021.780174 24.774782 952.95985 50.263791 889.237329L358.680796 65.942348C373.974201 27.708835 412.207714 2.219826 452.990128 2.219826h119.798341c43.331315 0 81.564828 25.489009 94.309332 66.271423l303.319204 823.294981c25.489009 61.173621-22.940108 129.993944-91.760432 129.993944zM506.517046 619.053837c68.820323 0 117.24944-66.271423 96.858233-129.993945l-76.467026-224.303276c-7.646703-22.940108-12.744504-50.978017-15.293405-89.211531h-5.097802c-2.548901 30.58681-7.646703 58.62472-17.842306 86.66263l-76.467026 226.852177c-22.940108 66.271423 25.489009 129.993944 94.309332 129.993945z" /></svg>